<mxfile host="65bd71144e">
    <diagram id="1Jz8oR_5wm4aonG8cVpr" name="Page-1">
        <mxGraphModel dx="1066" dy="1031" grid="0" gridSize="10" guides="1" tooltips="1" connect="1" arrows="1" fold="1" page="0" pageScale="1" pageWidth="850" pageHeight="1100" math="0" shadow="0">
            <root>
                <mxCell id="0"/>
                <mxCell id="1" parent="0"/>
                <mxCell id="2" value="MZ Subnet" style="sketch=0;outlineConnect=0;gradientColor=none;html=1;whiteSpace=wrap;fontSize=12;fontStyle=0;shape=mxgraph.aws4.group;grIcon=mxgraph.aws4.group_subnet;strokeColor=#879196;fillColor=none;verticalAlign=top;align=left;spacingLeft=30;fontColor=#879196;dashed=0;" vertex="1" parent="1">
                    <mxGeometry x="155" y="44" width="380" height="531" as="geometry"/>
                </mxCell>
                <mxCell id="3" value="Win10&lt;br&gt;10.1.2.4" style="sketch=0;outlineConnect=0;gradientColor=none;fontColor=#545B64;strokeColor=none;fillColor=#879196;dashed=0;verticalLabelPosition=bottom;verticalAlign=top;align=center;html=1;fontSize=12;fontStyle=0;aspect=fixed;shape=mxgraph.aws4.illustration_desktop;pointerEvents=1" vertex="1" parent="1">
                    <mxGeometry x="295" y="117" width="100" height="91" as="geometry"/>
                </mxCell>
                <mxCell id="4" value="Kali Internal" style="sketch=0;outlineConnect=0;strokeColor=#b85450;fillColor=#f8cecc;dashed=0;verticalLabelPosition=bottom;verticalAlign=top;align=center;html=1;fontSize=12;fontStyle=0;aspect=fixed;shape=mxgraph.aws4.illustration_desktop;pointerEvents=1" vertex="1" parent="1">
                    <mxGeometry x="295" y="393" width="100" height="91" as="geometry"/>
                </mxCell>
                <mxCell id="5" value="DMZ Subnet" style="sketch=0;outlineConnect=0;gradientColor=none;html=1;whiteSpace=wrap;fontSize=12;fontStyle=0;shape=mxgraph.aws4.group;grIcon=mxgraph.aws4.group_subnet;strokeColor=#879196;fillColor=none;verticalAlign=top;align=left;spacingLeft=30;fontColor=#879196;dashed=0;" vertex="1" parent="1">
                    <mxGeometry x="724" y="44" width="380" height="531" as="geometry"/>
                </mxCell>
                <mxCell id="6" value="Test Server&lt;br&gt;(DMZI Server)&lt;br&gt;10.1.0.7" style="sketch=0;outlineConnect=0;gradientColor=none;fontColor=#545B64;strokeColor=none;fillColor=#879196;dashed=0;verticalLabelPosition=bottom;verticalAlign=top;align=center;html=1;fontSize=12;fontStyle=0;aspect=fixed;shape=mxgraph.aws4.illustration_desktop;pointerEvents=1" vertex="1" parent="1">
                    <mxGeometry x="864" y="117" width="100" height="91" as="geometry"/>
                </mxCell>
                <mxCell id="7" value="Trainning Server&lt;br&gt;(Debianx64DMZOnCloudNew)&lt;br&gt;10.1.0.12" style="sketch=0;outlineConnect=0;gradientColor=none;fontColor=#545B64;strokeColor=none;fillColor=#879196;dashed=0;verticalLabelPosition=bottom;verticalAlign=top;align=center;html=1;fontSize=12;fontStyle=0;aspect=fixed;shape=mxgraph.aws4.illustration_desktop;pointerEvents=1" vertex="1" parent="1">
                    <mxGeometry x="864" y="393" width="100" height="91" as="geometry"/>
                </mxCell>
                <mxCell id="9" value="Learnaboutsecurity.com" style="sketch=0;pointerEvents=1;shadow=0;dashed=0;html=1;strokeColor=none;fillColor=#505050;labelPosition=center;verticalLabelPosition=bottom;verticalAlign=top;outlineConnect=0;align=center;shape=mxgraph.office.concepts.web_page;" vertex="1" parent="1">
                    <mxGeometry x="582" y="-214" width="92" height="98" as="geometry"/>
                </mxCell>
            </root>
        </mxGraphModel>
    </diagram>
</mxfile>